<?xml version="1.0" encoding="UTF-8" standalone="no"?>
<svg
   id="Layer_1"
   data-name="Layer 1"
   viewBox="0 0 621.53003 147.27"
   version="1.1"
   width="621.53003"
   height="147.27"
   xmlns="http://www.w3.org/2000/svg"
   xmlns:svg="http://www.w3.org/2000/svg">
  <defs
     id="defs184">
    <style
       id="style182">
      .cls-1 {
        fill: #fff;
      }

      .cls-2 {
        fill: #32adb6;
      }
    </style>
  </defs>
  <g
     id="g232"
     transform="translate(-229.24,-466.38)">
    <g
       id="g192">
      <polygon
         class="cls-2"
         points="310.67,564.53 331.9,552.27 310.67,540.01 310.67,515.46 331.9,503.19 310.66,490.92 299.34,484.39 287.88,491 287.88,505.88 283.21,503.19 277.94,500.14 277.94,485.26 289.4,478.64 310.66,466.38 331.9,478.64 353.17,490.92 353.17,515.47 331.9,527.73 353.17,540 353.17,564.53 331.9,576.81 310.67,589.07 "
         id="polygon186" />
      <path
         class="cls-2"
         d="m 277.94,495.9 v 4.25 l 5.27,3.04 4.67,2.69 v -4.25 l -9.94,-5.74 z"
         id="path188" />
      <path
         class="cls-2"
         d="m 304.46,515.46 -12.19,-7.04 -4.4,-2.54 -4.67,-2.7 -5.26,-3.04 -6.47,-3.74 -9.51,-5.49 v 0 c 0,0 0,0 0,0 l -21.26,12.27 v 0 l -11.46,6.61 v 84.94 l 11.46,6.61 v 0 l 21.26,12.27 v 0 c 0,0 21.25,-12.27 21.25,-12.27 l 21.26,-12.28 v -24.54 l -21.26,-12.27 21.26,-12.27 v -24.54 z m -42.5,73.61 -11.33,6.54 -11.46,-6.61 v -73.47 l 11.46,-6.61 11.33,6.54 21.25,12.27 -21.25,12.27 v 24.54 l 21.25,12.27 -21.25,12.27 z"
         id="path190" />
    </g>
    <g
       id="g230"
       style="fill:#000000;fill-opacity:1">
      <g
         id="g210"
         style="fill:#000000;fill-opacity:1">
        <path
           class="cls-1"
           d="m 384.25,565.29 v -73.68 h 37.89 c 4.91,0 9.16,0.83 12.74,2.47 3.58,1.65 6.3,3.91 8.16,6.79 1.86,2.88 2.79,6.11 2.79,9.68 0,4.14 -1.12,7.49 -3.37,10.05 -2.25,2.56 -4.98,4.3 -8.21,5.21 v 0.53 c 3.93,0.77 7.28,2.62 10.05,5.53 2.77,2.91 4.16,6.86 4.16,11.84 0,4.07 -1.05,7.74 -3.16,11 -2.11,3.26 -5.18,5.84 -9.21,7.74 -4.04,1.9 -8.86,2.84 -14.47,2.84 z m 35.79,-44.74 c 3.09,0 5.44,-0.68 7.05,-2.05 1.61,-1.37 2.42,-3.14 2.42,-5.32 0,-2.18 -0.81,-3.95 -2.42,-5.32 -1.62,-1.37 -3.97,-2.05 -7.05,-2.05 h -20 v 14.74 z m 0.52,30.53 c 2.53,0 4.67,-0.37 6.42,-1.11 1.75,-0.74 3.05,-1.74 3.89,-3 0.84,-1.26 1.26,-2.7 1.26,-4.32 0,-1.62 -0.42,-3.05 -1.26,-4.32 -0.84,-1.26 -2.14,-2.26 -3.89,-3 -1.75,-0.74 -3.89,-1.11 -6.42,-1.11 h -20.53 v 16.84 h 20.53 z"
           id="path194"
           style="fill:#000000;fill-opacity:1" />
        <path
           class="cls-1"
           d="m 471.09,585.29 5.79,-20 H 465.3 l -14.21,-53.68 h 15.26 l 10.53,41.05 h 4.21 l 11.58,-41.05 h 15.26 l -21.58,73.68 z"
           id="path196"
           style="fill:#000000;fill-opacity:1" />
        <path
           class="cls-1"
           d="m 521.82,565.29 v -41.05 h -6.84 v -12.63 h 6.84 v -11.58 h 14.74 v 11.58 h 15.26 v 12.63 h -15.26 v 28.42 h 15.79 v 12.63 h -30.52 z"
           id="path198"
           style="fill:#000000;fill-opacity:1" />
        <path
           class="cls-1"
           d="m 584.45,566.87 c -5.33,0 -10.21,-1.26 -14.63,-3.79 -4.42,-2.53 -7.91,-5.96 -10.47,-10.32 -2.56,-4.35 -3.84,-9.12 -3.84,-14.32 0,-5.2 1.28,-9.96 3.84,-14.31 2.56,-4.35 6.05,-7.79 10.47,-10.32 4.42,-2.53 9.3,-3.79 14.63,-3.79 5.33,0 10.37,1.26 14.68,3.79 4.31,2.53 7.68,5.97 10.1,10.32 2.42,4.35 3.63,9.12 3.63,14.31 v 3.16 h -42.1 c 0.35,2.25 1.17,4.33 2.47,6.26 1.3,1.93 2.93,3.47 4.89,4.63 1.96,1.16 4.07,1.74 6.32,1.74 3.09,0 5.67,-0.61 7.74,-1.84 2.07,-1.23 3.53,-2.72 4.37,-4.47 h 15.79 c -1.62,5.26 -4.77,9.74 -9.47,13.42 -4.7,3.68 -10.84,5.53 -18.42,5.53 z m 12.63,-34.21 c -0.35,-1.82 -1.11,-3.49 -2.26,-5 -1.16,-1.51 -2.63,-2.72 -4.42,-3.63 -1.79,-0.91 -3.77,-1.37 -5.95,-1.37 -2.18,0 -4.18,0.46 -6,1.37 -1.83,0.91 -3.33,2.12 -4.53,3.63 -1.19,1.51 -2.07,3.18 -2.63,5 z"
           id="path200"
           style="fill:#000000;fill-opacity:1" />
        <path
           class="cls-1"
           d="m 618.66,565.29 v -73.68 h 37.89 c 4.91,0 9.16,0.83 12.74,2.47 3.58,1.65 6.3,3.91 8.16,6.79 1.86,2.88 2.79,6.11 2.79,9.68 0,4.14 -1.12,7.49 -3.37,10.05 -2.25,2.56 -4.98,4.3 -8.21,5.21 v 0.53 c 3.93,0.77 7.28,2.62 10.05,5.53 2.77,2.91 4.16,6.86 4.16,11.84 0,4.07 -1.05,7.74 -3.16,11 -2.1,3.26 -5.18,5.84 -9.21,7.74 -4.04,1.9 -8.86,2.84 -14.47,2.84 z m 35.79,-44.74 c 3.09,0 5.44,-0.68 7.05,-2.05 1.61,-1.37 2.42,-3.14 2.42,-5.32 0,-2.18 -0.81,-3.95 -2.42,-5.32 -1.62,-1.37 -3.96,-2.05 -7.05,-2.05 h -20 v 14.74 z m 0.53,30.53 c 2.53,0 4.67,-0.37 6.42,-1.11 1.75,-0.74 3.05,-1.74 3.9,-3 0.84,-1.26 1.26,-2.7 1.26,-4.32 0,-1.62 -0.42,-3.05 -1.26,-4.32 -0.84,-1.26 -2.14,-2.26 -3.9,-3 -1.76,-0.74 -3.9,-1.11 -6.42,-1.11 h -20.53 v 16.84 h 20.53 z"
           id="path202"
           style="fill:#000000;fill-opacity:1" />
        <path
           class="cls-1"
           d="m 714.45,566.87 c -4.56,0 -8.72,-1.18 -12.47,-3.53 -3.75,-2.35 -6.74,-5.68 -8.95,-10 -2.21,-4.32 -3.32,-9.28 -3.32,-14.9 0,-5.62 1.11,-10.58 3.32,-14.89 2.21,-4.31 5.19,-7.65 8.95,-10 3.75,-2.35 7.91,-3.53 12.47,-3.53 2.6,0 4.98,0.4 7.16,1.21 2.17,0.81 4.07,1.84 5.68,3.1 1.61,1.26 2.95,2.63 4,4.11 h 0.53 v -6.84 h 14.74 v 53.68 h -14.74 v -6.84 h -0.53 c -1.05,1.47 -2.39,2.84 -4,4.11 -1.62,1.26 -3.51,2.3 -5.68,3.11 -2.17,0.81 -4.56,1.21 -7.16,1.21 z m 3.68,-12.63 c 2.67,0 5.03,-0.63 7.11,-1.9 2.07,-1.26 3.68,-3.09 4.84,-5.47 1.16,-2.38 1.74,-5.19 1.74,-8.42 0,-3.23 -0.58,-6.03 -1.74,-8.42 -1.16,-2.38 -2.77,-4.21 -4.84,-5.47 -2.07,-1.26 -4.44,-1.89 -7.11,-1.89 -2.46,0 -4.68,0.63 -6.68,1.89 -2,1.26 -3.58,3.09 -4.74,5.47 -1.16,2.39 -1.74,5.19 -1.74,8.42 0,3.23 0.58,6.04 1.74,8.42 1.16,2.39 2.74,4.21 4.74,5.47 2,1.26 4.23,1.9 6.68,1.9 z"
           id="path204"
           style="fill:#000000;fill-opacity:1" />
        <path
           class="cls-1"
           d="m 758.13,565.29 v -53.68 h 14.74 v 7.89 h 0.53 c 1.05,-2.53 2.74,-4.65 5.05,-6.37 2.32,-1.72 5.19,-2.58 8.63,-2.58 h 6.32 v 14.21 h -7.89 c -2.6,0 -4.84,0.49 -6.74,1.47 -1.9,0.98 -3.35,2.39 -4.37,4.21 -1.02,1.83 -1.53,3.97 -1.53,6.42 v 28.42 h -14.74 z"
           id="path206"
           style="fill:#000000;fill-opacity:1" />
        <path
           class="cls-1"
           d="m 818.66,566.87 c -4.56,0 -8.72,-1.18 -12.47,-3.53 -3.75,-2.35 -6.74,-5.68 -8.95,-10 -2.21,-4.32 -3.32,-9.28 -3.32,-14.9 0,-5.62 1.11,-10.58 3.32,-14.89 2.21,-4.32 5.19,-7.65 8.95,-10 3.75,-2.35 7.91,-3.53 12.47,-3.53 2.6,0 4.98,0.4 7.16,1.21 2.17,0.81 4.07,1.84 5.68,3.1 1.61,1.26 2.95,2.63 4,4.11 h 0.53 V 491.6 h 14.74 v 73.68 h -14.74 v -6.84 h -0.53 c -1.05,1.47 -2.39,2.84 -4,4.11 -1.62,1.26 -3.51,2.3 -5.68,3.11 -2.17,0.81 -4.56,1.21 -7.16,1.21 z m 3.68,-12.63 c 2.67,0 5.03,-0.63 7.11,-1.9 2.07,-1.26 3.68,-3.09 4.84,-5.47 1.16,-2.38 1.74,-5.19 1.74,-8.42 0,-3.23 -0.58,-6.03 -1.74,-8.42 -1.16,-2.38 -2.77,-4.21 -4.84,-5.47 -2.07,-1.26 -4.44,-1.89 -7.11,-1.89 -2.46,0 -4.68,0.63 -6.68,1.89 -2,1.26 -3.58,3.09 -4.74,5.47 -1.16,2.39 -1.74,5.19 -1.74,8.42 0,3.23 0.58,6.04 1.74,8.42 1.16,2.39 2.74,4.21 4.74,5.47 2,1.26 4.23,1.9 6.68,1.9 z"
           id="path208"
           style="fill:#000000;fill-opacity:1" />
      </g>
      <g
         id="g228"
         style="fill:#000000;fill-opacity:1">
        <path
           class="cls-1"
           d="m 632.03,613.62 c -2.58,0 -4.79,-0.45 -6.63,-1.35 -1.84,-0.9 -3.32,-2.06 -4.42,-3.48 -1.11,-1.42 -1.88,-2.97 -2.32,-4.67 h 6.3 c 0.48,1.22 1.32,2.24 2.51,3.07 1.2,0.83 2.72,1.24 4.56,1.24 2.02,0 3.5,-0.31 4.42,-0.94 0.92,-0.63 1.38,-1.47 1.38,-2.54 0,-0.66 -0.28,-1.21 -0.83,-1.63 -0.55,-0.42 -1.25,-0.77 -2.1,-1.02 -0.85,-0.26 -2.03,-0.55 -3.54,-0.88 -2.36,-0.52 -4.28,-1.05 -5.78,-1.6 -1.49,-0.55 -2.79,-1.41 -3.9,-2.57 -1.11,-1.16 -1.66,-2.74 -1.66,-4.72 0,-1.44 0.43,-2.78 1.3,-4.03 0.87,-1.25 2.14,-2.25 3.81,-2.98 1.68,-0.74 3.69,-1.11 6.05,-1.11 3.61,0 6.47,0.84 8.57,2.51 2.1,1.68 3.43,3.73 3.98,6.16 h -6.19 c -0.37,-0.96 -1.09,-1.78 -2.16,-2.46 -1.07,-0.68 -2.47,-1.02 -4.2,-1.02 -1.1,0 -2.03,0.14 -2.76,0.41 -0.74,0.28 -1.29,0.64 -1.66,1.08 -0.37,0.44 -0.55,0.92 -0.55,1.44 0,0.66 0.28,1.21 0.83,1.63 0.55,0.42 1.25,0.77 2.1,1.02 0.85,0.26 2.03,0.55 3.54,0.88 2.36,0.52 4.28,1.05 5.78,1.6 1.49,0.55 2.79,1.41 3.9,2.57 1.1,1.16 1.66,2.74 1.66,4.73 0,1.58 -0.46,3.03 -1.38,4.34 -0.92,1.31 -2.3,2.36 -4.12,3.15 -1.82,0.79 -3.99,1.19 -6.49,1.19 z"
           id="path212"
           style="fill:#000000;fill-opacity:1" />
        <path
           class="cls-1"
           d="m 662.54,613.62 c -2.8,0 -5.33,-0.64 -7.6,-1.91 -2.27,-1.27 -4.04,-3.02 -5.33,-5.25 -1.29,-2.23 -1.93,-4.71 -1.93,-7.43 0,-2.72 0.64,-5.21 1.93,-7.46 1.29,-2.25 3.07,-4.01 5.33,-5.28 2.27,-1.27 4.8,-1.91 7.6,-1.91 2.8,0 5.39,0.64 7.65,1.91 2.27,1.27 4.04,3.03 5.33,5.28 1.29,2.25 1.93,4.73 1.93,7.46 0,2.73 -0.65,5.2 -1.93,7.43 -1.29,2.23 -3.07,3.98 -5.33,5.25 -2.27,1.27 -4.82,1.91 -7.65,1.91 z m 0,-5.36 c 1.66,0 3.15,-0.39 4.48,-1.16 1.33,-0.77 2.37,-1.86 3.12,-3.26 0.76,-1.4 1.13,-3 1.13,-4.81 0,-1.81 -0.38,-3.46 -1.13,-4.86 -0.76,-1.4 -1.79,-2.49 -3.12,-3.26 -1.33,-0.77 -2.82,-1.16 -4.48,-1.16 -1.66,0 -3.1,0.39 -4.42,1.16 -1.33,0.77 -2.37,1.86 -3.12,3.26 -0.76,1.4 -1.13,3.02 -1.13,4.86 0,1.84 0.38,3.41 1.13,4.81 0.76,1.4 1.8,2.49 3.12,3.26 1.33,0.77 2.8,1.16 4.42,1.16 z"
           id="path214"
           style="fill:#000000;fill-opacity:1" />
        <path
           class="cls-1"
           d="m 683.98,612.96 v -22.27 h -3.59 v -5.36 h 3.59 v -11.05 h 14.48 v 5.36 h -8.4 v 5.69 h 6.74 v 5.36 h -6.74 v 22.27 z"
           id="path216"
           style="fill:#000000;fill-opacity:1" />
        <path
           class="cls-1"
           d="m 703.71,612.96 v -22.55 h -3.59 v -5.36 h 3.59 v -6.08 h 6.08 v 6.08 h 8.4 v 5.36 h -8.4 v 17.19 h 8.68 v 5.36 z"
           id="path218"
           style="fill:#000000;fill-opacity:1" />
        <path
           class="cls-1"
           d="m 727.36,612.96 -6.08,-27.91 h 6.3 l 4.42,21.99 h 1.11 l 4.42,-21.99 h 9.01 l 4.42,21.99 h 1.1 l 4.42,-21.99 h 6.35 l -6.08,27.91 h -10.11 l -4.25,-21.44 h -0.72 l -4.25,21.44 z"
           id="path220"
           style="fill:#000000;fill-opacity:1" />
        <path
           class="cls-1"
           d="m 779.14,613.62 c -2.4,0 -4.6,-0.62 -6.6,-1.85 -2.01,-1.23 -3.6,-2.97 -4.78,-5.19 -1.18,-2.23 -1.77,-4.74 -1.77,-7.54 0,-2.8 0.59,-5.37 1.77,-7.6 1.18,-2.23 2.77,-3.96 4.78,-5.19 2.01,-1.23 4.21,-1.85 6.6,-1.85 1.73,0 3.25,0.29 4.56,0.86 1.31,0.57 2.37,1.24 3.18,2.02 0.81,0.77 1.34,1.38 1.6,1.82 h 0.17 v -4.03 h 6.08 v 27.91 h -6.08 v -4.03 h -0.17 c -0.26,0.48 -0.79,1.1 -1.6,1.85 -0.81,0.76 -1.87,1.42 -3.18,1.99 -1.31,0.57 -2.83,0.86 -4.56,0.86 z m 1.22,-5.36 c 1.55,0 2.96,-0.38 4.23,-1.13 1.27,-0.75 2.27,-1.83 2.98,-3.23 0.72,-1.4 1.08,-3.02 1.08,-4.86 0,-1.84 -0.36,-3.52 -1.08,-4.92 -0.72,-1.4 -1.71,-2.48 -2.98,-3.23 -1.27,-0.75 -2.68,-1.13 -4.23,-1.13 -1.55,0 -2.89,0.38 -4.15,1.13 -1.26,0.75 -2.24,1.83 -2.96,3.23 -0.72,1.4 -1.08,3.04 -1.08,4.92 0,1.88 0.36,3.46 1.08,4.86 0.72,1.4 1.7,2.48 2.96,3.23 1.25,0.76 2.63,1.13 4.15,1.13 z"
           id="path222"
           style="fill:#000000;fill-opacity:1" />
        <path
           class="cls-1"
           d="m 801.63,612.96 v -27.91 h 6.02 v 4.31 h 0.17 c 0.63,-1.33 1.61,-2.44 2.96,-3.34 1.34,-0.9 2.97,-1.35 4.89,-1.35 h 3.32 v 5.91 h -3.7 c -1.51,0 -2.84,0.31 -3.98,0.94 -1.14,0.63 -2.04,1.5 -2.68,2.62 -0.65,1.12 -0.97,2.42 -0.97,3.9 v 14.92 h -6.02 z"
           id="path224"
           style="fill:#000000;fill-opacity:1" />
        <path
           class="cls-1"
           d="m 836.23,613.62 c -2.73,0 -5.19,-0.64 -7.41,-1.91 -2.22,-1.27 -3.96,-3.02 -5.25,-5.25 -1.29,-2.23 -1.93,-4.71 -1.93,-7.43 0,-2.72 0.64,-5.21 1.93,-7.46 1.29,-2.25 3.04,-4.01 5.25,-5.28 2.21,-1.27 4.68,-1.91 7.41,-1.91 2.73,0 5.25,0.64 7.46,1.91 2.21,1.27 3.94,3.02 5.19,5.25 1.25,2.23 1.88,4.67 1.88,7.32 v 1.66 h -22.93 c 0.18,1.44 0.67,2.75 1.46,3.92 0.79,1.17 1.8,2.11 3.01,2.79 1.22,0.68 2.52,1.02 3.92,1.02 1.91,0 3.54,-0.4 4.86,-1.19 1.32,-0.79 2.3,-1.78 2.93,-2.96 h 6.3 c -0.92,2.65 -2.57,4.9 -4.95,6.74 -2.38,1.84 -5.42,2.76 -9.15,2.76 z m 8.06,-17.35 c -0.18,-1.18 -0.64,-2.27 -1.35,-3.26 -0.72,-0.99 -1.66,-1.79 -2.82,-2.38 -1.16,-0.59 -2.46,-0.88 -3.9,-0.88 -1.44,0 -2.68,0.3 -3.84,0.88 -1.16,0.59 -2.11,1.38 -2.85,2.38 -0.74,0.99 -1.25,2.08 -1.55,3.26 h 16.3 z"
           id="path226"
           style="fill:#000000;fill-opacity:1" />
      </g>
    </g>
  </g>
</svg>
