<?xml version="1.0" encoding="UTF-8" standalone="no"?>
<svg
   id="Layer_1"
   data-name="Layer 1"
   viewBox="0 0 630.15997 160.52"
   version="1.1"
   width="630.15997"
   height="160.52"
   xmlns="http://www.w3.org/2000/svg"
   xmlns:svg="http://www.w3.org/2000/svg">
  <defs
     id="defs184">
    <style
       id="style182">
      .cls-1 {
        fill: #32adb6;
      }
    </style>
  </defs>
  <g
     id="g222"
     transform="translate(-224.92,-459.74)">
    <g
       id="g202">
      <path
         d="m 428.14,489 c 15.27,0 25.21,7.2 25.21,18.77 0,9.27 -6.42,15.92 -15.25,16.96 10.67,0.98 18.38,8.26 18.38,18.38 0,12.19 -11.21,19.93 -27.44,19.93 H 391.09 V 489 Z m 9,21.64 c 0,-5.51 -4.01,-8.54 -10.72,-8.54 h -18.98 v 17.68 h 19 c 6.45,0 10.69,-3.44 10.69,-9.14 z m -9.26,39.3 c 8.13,0 12.25,-2.9 12.25,-9.11 0,-6.21 -4.12,-9.09 -12.22,-9.09 h -20.45 v 18.2 h 20.43 z"
         id="path186" />
      <path
         d="m 517.29,505.96 -21.8,58.69 c -4.97,13.57 -13.28,19.57 -26.9,19.57 -2.59,0 -5.31,-0.23 -8.18,-0.73 v -12.53 c 2.36,0.34 4.32,0.49 6.11,0.49 6.11,0 10.04,-1.91 12.66,-6.42 l -21.59,-59.08 h 16.31 l 13.62,45.05 13.83,-45.05 h 15.95 z"
         id="path188" />
      <path
         d="m 546.71,564.57 c -12.56,0 -19.13,-7.43 -19.13,-21.95 v -24.34 h -7.15 v -12.32 h 7.15 v -13.15 h 15.51 v 13.15 h 16.41 v 12.32 h -16.41 v 24.36 c 0,6.55 2.3,9.45 7.59,9.45 2.12,0 4.95,-0.47 8.83,-1.45 v 11.96 c -4.82,1.32 -9.06,1.97 -12.79,1.97 z"
         id="path190" />
      <path
         d="m 618.25,543.7 c -3.11,13 -13.51,20.89 -27.39,20.89 -17.22,0 -28.84,-12.17 -28.84,-30.16 0,-17.99 11.49,-30.03 28.53,-30.03 17.04,0 27.96,11.86 27.96,29.95 0,1.37 -0.05,2.77 -0.21,4.22 h -41.29 c 0.98,8.54 6.21,13.62 14.29,13.62 6.06,0 10.12,-2.85 12.4,-8.49 z M 603.62,529 c -1.29,-8.15 -5.72,-12.4 -13,-12.4 -7.28,0 -12.19,4.5 -13.46,12.4 z"
         id="path192" />
      <path
         d="m 661.27,489 c 15.27,0 25.21,7.2 25.21,18.77 0,9.27 -6.42,15.92 -15.25,16.96 10.67,0.98 18.38,8.26 18.38,18.38 0,12.19 -11.21,19.93 -27.44,19.93 H 624.22 V 489 Z m 9,21.64 c 0,-5.51 -4.01,-8.54 -10.72,-8.54 h -18.98 v 17.68 h 19 c 6.45,0 10.69,-3.44 10.69,-9.14 z m -9.26,39.3 c 8.13,0 12.25,-2.9 12.25,-9.11 0,-6.21 -4.12,-9.09 -12.22,-9.09 h -20.45 v 18.2 h 20.43 z"
         id="path194" />
      <path
         d="m 722.56,504.4 c 17.42,0 27.73,9.16 27.73,24.78 v 33.86 h -15.51 v -14.6 c -2.56,9.99 -10.74,16.16 -21.9,16.16 -11.16,0 -19.44,-6.73 -19.44,-16.85 0,-10.82 8.83,-17.24 23.71,-17.24 h 17.63 v -1.32 c 0,-7.84 -4.63,-12.56 -12.58,-12.56 -7.95,0 -11.62,3.94 -11.62,10.25 h -15.46 c 0,-13.82 10.49,-22.47 27.44,-22.47 z m -3.81,35.52 c -6.42,0 -9.81,2.2 -9.81,6.39 0,4.19 3.63,6.73 10.05,6.73 9.09,0 15.79,-4.87 15.79,-11.44 v -1.68 z"
         id="path196" />
      <path
         d="m 772.17,563.04 h -15.51 v -57.09 h 15.51 v 19.83 c 2.05,-12.22 7.9,-19.83 19.08,-19.83 h 3.39 v 14.58 h -5.98 c -12.71,0 -16.49,5.18 -16.49,16.44 z"
         id="path198" />
      <path
         d="m 855.08,486.41 v 76.63 h -15.51 v -17.35 c -2.54,12.01 -9.4,18.9 -19.24,18.9 -13.54,0 -23.04,-12.4 -23.04,-30.11 0,-17.71 9.5,-30.08 23.04,-30.08 9.84,0 16.7,6.86 19.24,18.87 V 486.4 h 15.51 z m -28.97,31.35 c -8.65,0 -13.2,5.75 -13.2,16.72 0,10.97 4.56,16.75 13.2,16.75 8.64,0 13.46,-6.08 13.46,-16.75 0,-10.67 -4.89,-16.72 -13.46,-16.72 z"
         id="path200" />
    </g>
    <g
       id="g220">
      <path
         d="m 622.94,597.22 h -5.69 c 0,-3.26 -2.8,-5.44 -7.89,-5.44 -4.6,0 -7.74,1.77 -7.74,4.43 0,3.01 4.03,3.63 7.58,4.2 l 2.12,0.33 c 5.32,0.84 12.79,2.02 12.79,9.72 0,6.27 -4.96,9.8 -14.21,9.8 -9.25,0 -14.53,-3.84 -14.53,-10.74 h 5.69 c 0,3.66 2.83,5.69 8.82,5.69 5.41,0 8.55,-1.64 8.55,-4.61 0,-3.47 -4.28,-4.24 -8.39,-4.94 l -2.12,-0.36 c -4.83,-0.82 -12,-2.02 -12,-8.95 0,-5.85 5.1,-9.6 13.44,-9.6 8.34,0 13.58,4.07 13.58,10.48 z"
         id="path204" />
      <path
         d="m 643.58,586.74 c 9.31,0 15.54,6.7 15.54,16.75 0,10.05 -6.23,16.77 -15.54,16.77 -9.31,0 -15.54,-6.72 -15.54,-16.77 0,-10.05 6.23,-16.75 15.54,-16.75 z m 0.01,28.24 c 6,0 9.69,-4.38 9.69,-11.49 0,-7.11 -3.69,-11.48 -9.69,-11.48 -6,0 -9.72,4.38 -9.72,11.48 0,7.1 3.7,11.49 9.72,11.49 z"
         id="path206" />
      <path
         d="m 667.14,592.51 h -4.83 v -4.9 h 4.83 v -0.72 c 0,-7.87 3.95,-12.04 11.36,-12.04 1.57,0 3.29,0.19 5.13,0.56 v 5.05 c -1.69,-0.35 -3.11,-0.52 -4.33,-0.52 -4.44,0 -6.62,2.29 -6.62,6.95 v 0.72 h 10.96 v 4.9 h -10.67 v 26.89 h -5.84 v -26.89 z"
         id="path208" />
      <path
         d="m 702.17,620.25 c -6.33,0 -9.79,-3.91 -9.79,-11.38 v -16.36 h -4.33 v -4.9 h 4.33 v -7.32 h 5.84 v 7.32 h 10.52 v 4.9 h -10.52 v 16.38 c 0,4.21 1.53,6.17 4.93,6.17 1.34,0 3.16,-0.3 5.59,-0.95 v 5.05 c -2.45,0.74 -4.64,1.1 -6.57,1.1 z"
         id="path210" />
      <path
         d="m 741.83,587.61 8.09,27.78 7.97,-27.78 h 5.91 l -9.41,31.79 h -8.22 l -7.9,-26.38 -7.91,26.38 h -8.22 l -9.41,-31.79 h 6.05 l 7.99,27.79 8.07,-27.79 z"
         id="path212" />
      <path
         d="m 781.41,586.74 c 9.41,0 15.09,5.16 15.09,13.8 v 18.86 h -5.84 v -8.55 c -1.54,5.85 -6.39,9.41 -13.09,9.41 -6.7,0 -11.58,-3.84 -11.58,-9.59 0,-5.75 4.73,-9.4 12.4,-9.4 h 12.27 v -0.74 c 0,-5.23 -3.6,-8.51 -9.36,-8.51 -5.76,0 -8.53,2.64 -8.53,6.65 h -5.84 c 0,-7.31 5.58,-11.94 14.47,-11.94 z m -3.07,19.43 c -4.3,0 -6.57,1.5 -6.57,4.3 0,3.03 2.62,4.7 7.38,4.7 6.75,0 11.52,-3.37 11.52,-8.12 v -0.88 z"
         id="path214" />
      <path
         d="m 807.98,619.4 h -5.84 v -31.79 h 5.84 v 10.13 c 1.47,-6.33 5.59,-10.13 12.31,-10.13 h 1.44 v 5.56 h -1.43 c -9.3,0 -12.33,3.4 -12.33,10.47 v 15.76 z"
         id="path216" />
      <path
         d="m 854.92,608.86 c -1.64,7.12 -7.14,11.4 -14.59,11.4 -9.34,0 -15.61,-6.75 -15.61,-16.81 0,-10.06 6.2,-16.71 15.44,-16.71 9.24,0 14.92,6.49 14.92,16.62 0,0.74 -0.04,1.41 -0.1,2.26 h -24.31 c 0.68,5.82 4.31,9.36 9.8,9.36 4.23,0 7.06,-2.08 8.62,-6.13 h 5.82 z m -5.88,-8.28 c -0.78,-5.52 -3.89,-8.56 -8.85,-8.56 -4.96,0 -8.52,3.21 -9.4,8.56 z"
         id="path218" />
    </g>
  </g>
  <g
     id="g230"
     transform="translate(-224.92,-459.74)">
    <polygon
       class="cls-1"
       points="313.7,566.75 336.85,553.38 313.7,540.01 313.7,513.24 336.85,499.87 313.69,486.5 301.34,479.37 288.84,486.58 288.84,502.8 283.75,499.86 278.01,496.55 278.01,480.32 290.51,473.11 313.69,459.74 336.85,473.11 360.02,486.5 360.02,513.25 336.85,526.62 360.02,540 360.02,566.75 336.85,580.13 313.7,593.5 "
       id="polygon224" />
    <path
       class="cls-1"
       d="m 278.01,491.92 v 4.63 l 5.74,3.32 5.09,2.94 v -4.63 l -10.83,-6.25 z"
       id="path226" />
    <path
       class="cls-1"
       d="m 306.93,513.25 -13.29,-7.68 -4.79,-2.77 -5.09,-2.94 -5.74,-3.31 -7.05,-4.07 -10.37,-5.99 v 0 c 0,0 0,0 0,0 l -23.18,13.37 v 0 l -12.5,7.21 v 92.6 l 12.5,7.21 v 0 l 23.18,13.37 v 0 c 0,0 23.16,-13.37 23.16,-13.37 l 23.18,-13.39 V 566.74 L 283.76,553.37 306.94,540 v -26.75 z m -46.34,80.25 -12.35,7.13 -12.49,-7.21 v -80.09 l 12.49,-7.21 12.35,7.13 23.16,13.37 -23.16,13.37 v 26.75 l 23.16,13.37 -23.16,13.37 z"
       id="path228" />
  </g>
</svg>
